<svg width="31" height="38" viewBox="0 0 31 38" fill="none" xmlns="http://www.w3.org/2000/svg">
<path d="M15.2957 5.18912L15.2957 5.18913L15.2976 5.18985C17.2858 5.91282 18.7414 7.90651 18.7414 10.2725V19.0086V19.2586H18.9914H24.6889C27.7793 19.2586 30.1363 21.6155 30.1363 24.706V32.3026C30.1363 35.393 27.7793 37.75 24.6889 37.75H20.8906H17.0923H5.69743C2.60696 37.75 0.25 35.393 0.25 32.3026V1.91627C0.25 1.45377 0.562627 0.953541 0.919085 0.591222C1.18206 0.418217 1.42539 0.302777 1.67603 0.264218C1.92737 0.22555 2.20762 0.260959 2.547 0.430646L2.55892 0.436606L2.5714 0.441265L15.2957 5.18912ZM15.1932 34.4517H15.4432V34.2017V20.9077V10.2725C15.4432 9.83151 15.2787 9.40519 15.0474 9.0453C14.8156 8.68477 14.5066 8.37484 14.1923 8.16534L14.168 8.14909L14.1405 8.13892L3.88512 4.34063L3.54829 4.21588V4.57507V32.3026C3.54829 32.9291 3.75823 33.4707 4.14378 33.8562C4.52932 34.2418 5.07088 34.4517 5.69743 34.4517H7.59658H7.84658V34.2017V30.0236C7.84658 29.6018 7.97163 29.2852 8.18443 29.053C8.39625 28.822 8.71456 28.6534 9.14117 28.5644H9.87555C10.667 28.5644 11.1449 29.1912 11.1449 29.8337V34.2017V34.4517H11.3949H15.1932ZM24.4389 34.2017V34.4517H24.6889C25.3154 34.4517 25.857 34.2418 26.2425 33.8562C26.6281 33.4707 26.838 32.9291 26.838 32.3026V24.706C26.838 24.0794 26.6281 23.5379 26.2425 23.1523C25.857 22.7668 25.3154 22.5568 24.6889 22.5568H18.8015H18.5515V22.8068V34.2017V34.4517H18.8015H20.7007H20.9507V34.2017V31.7328C20.9507 30.9414 21.5775 30.4635 22.22 30.4635H23.1696C23.961 30.4635 24.4389 31.0903 24.4389 31.7328V34.2017Z" fill="black" stroke="#49FFBD" stroke-width="0.5"/>
<path d="M7.59658 9.51282H5.69743V11.412H7.59658V9.51282Z" fill="black"/>
<path d="M9.49572 19.0085H7.59657V20.9077H9.49572V19.0085Z" fill="black"/>
<path d="M11.3949 13.3112H9.49571V15.2103H11.3949V13.3112Z" fill="black"/>
<path d="M13.294 22.8068H11.3949V24.706H13.294V22.8068Z" fill="black"/>
<path d="M24.6889 24.706H22.7897V26.6051H24.6889V24.706Z" fill="black"/>
</svg>
