<svg xmlns="http://www.w3.org/2000/svg" version="1.1" xmlns:xlink="http://www.w3.org/1999/xlink" width="512" height="512" x="0" y="0" viewBox="0 0 512 512" style="enable-background:new 0 0 512 512" xml:space="preserve" class=""><g><path d="M51 310h40v40h30V30h60v30.023c-8.964 5.188-15 14.874-15 25.977v20c0 5.523 4.477 10 10 10h40c5.523 0 10-4.477 10-10V86c0-11.102-6.036-20.789-15-25.977V30h90v30.023c-8.964 5.188-15 14.874-15 25.977v20c0 5.523 4.477 10 10 10h40c5.523 0 10-4.477 10-10V86c0-11.102-6.036-20.789-15-25.977V30h60v320h30v-40h40v40h30V15c0-8.284-6.716-15-15-15H36c-8.284 0-15 6.716-15 15v335h30zM421 30h40v40h-40zm0 70h40v40h-40zm0 70h40v40h-40zm0 70h40v40h-40zM51 30h40v40H51zm0 70h40v40H51zm0 70h40v40H51zm0 70h40v40H51z" fill="#000000" opacity="1" data-original="#000000" class=""></path><path d="M151 245h210v105H151zM337.974 380H174.026l-31.51 112.97c-2.667 9.562 4.522 19.03 14.448 19.03h198.07c9.926 0 17.115-9.469 14.448-19.03zM492 380H369.119l27.892 100H497c8.284 0 15-6.716 15-15v-65c0-11.046-8.954-20-20-20zM20 380c-11.046 0-20 8.954-20 20v65c0 8.284 6.716 15 15 15h99.989l27.892-100z" fill="#000000" opacity="1" data-original="#000000" class=""></path></g></svg>