<svg width="45" height="33" viewBox="0 0 45 33" fill="none" xmlns="http://www.w3.org/2000/svg">
<path d="M42.59 2H2.41C2.18356 2 2 2.18356 2 2.41V30.29C2 30.5164 2.18356 30.7 2.41 30.7H42.59C42.8164 30.7 43 30.5164 43 30.29V2.41C43 2.18356 42.8164 2 42.59 2Z" stroke="black" stroke-width="3.075" stroke-linecap="round" stroke-linejoin="round"/>
<path d="M22.5 2V30.7" stroke="black" stroke-width="3.075" stroke-linecap="round" stroke-linejoin="round"/>
<path d="M22.5 22.5C25.8965 22.5 28.65 19.7466 28.65 16.35C28.65 12.9535 25.8965 10.2 22.5 10.2C19.1034 10.2 16.35 12.9535 16.35 16.35C16.35 19.7466 19.1034 22.5 22.5 22.5Z" stroke="black" stroke-width="3.075" stroke-linecap="round" stroke-linejoin="round"/>
<path d="M1.99999 10.2H7.73999C7.84873 10.2 7.95302 10.2432 8.02991 10.3201C8.1068 10.397 8.14999 10.5013 8.14999 10.61V22.09C8.14999 22.1988 8.1068 22.303 8.02991 22.3799C7.95302 22.4568 7.84873 22.5 7.73999 22.5H1.99999" stroke="black" stroke-width="3.075" stroke-linecap="round" stroke-linejoin="round"/>
<path d="M43 22.5H37.26C37.1513 22.5 37.047 22.4568 36.9701 22.3799C36.8932 22.303 36.85 22.1988 36.85 22.09V10.61C36.85 10.5013 36.8932 10.397 36.9701 10.3201C37.047 10.2432 37.1513 10.2 37.26 10.2H43" stroke="black" stroke-width="3.075" stroke-linecap="round" stroke-linejoin="round"/>
</svg>
