<svg width="36" height="36" viewBox="0 0 36 36" fill="none" xmlns="http://www.w3.org/2000/svg">
<path d="M33.4861 0C28.1312 0 15.2208 0.860686 7.47466 8.60687C2.47932 13.6022 2.03692 21.4082 6.11497 26.9203L0 33.0353L2.96471 36L9.07967 29.885C11.5569 31.7175 14.4923 32.6506 17.4339 32.6506C21.0381 32.6506 24.6433 31.2751 27.3931 28.5253C37.3524 18.5661 35.9298 0.0702392 35.9298 0.0702392C35.9298 0.0702392 35.0167 0 33.4861 0ZM7.54281 18.5661C7.54281 15.9243 8.57123 13.4397 10.4394 11.5716C15.3666 6.64438 23.0331 4.97228 28.5998 4.43448L9.11846 23.9168C8.09633 22.3349 7.54281 20.494 7.54281 18.5661ZM24.4284 25.5596C22.5603 27.4277 20.0768 28.4561 17.4339 28.4561C15.506 28.4561 13.6651 27.9026 12.0832 26.8805L31.5592 7.40443C31.0183 12.9868 29.3441 20.6439 24.4284 25.5596Z" fill="black"/>
</svg>
