<svg xmlns="http://www.w3.org/2000/svg" version="1.1" xmlns:xlink="http://www.w3.org/1999/xlink" width="512" height="512" x="0" y="0" viewBox="0 0 384.262 384.262" style="enable-background:new 0 0 512 512" xml:space="preserve" class=""><g><path d="M266.797 128.133h85.336c5.89 0 10.664-4.778 10.664-10.668s-4.774-10.668-10.664-10.668h-59.586l88.457-88.457A10.668 10.668 0 0 0 376.297.348a10.668 10.668 0 0 0-10.375 2.91l-88.457 88.457V32.133c0-5.895-4.778-10.668-10.668-10.668s-10.664 4.773-10.664 10.668v85.332c0 5.89 4.773 10.668 10.664 10.668zM117.465 256.133H32.133c-5.895 0-10.668 4.773-10.668 10.664s4.773 10.668 10.668 10.668h59.582L3.258 365.922a10.668 10.668 0 0 0 4.707 17.992c3.73.977 7.695-.137 10.375-2.91l88.457-88.457v59.586c0 5.89 4.777 10.664 10.668 10.664s10.668-4.774 10.668-10.664v-85.336c0-5.89-4.778-10.664-10.668-10.664zM292.547 277.465h59.586c5.89 0 10.664-4.777 10.664-10.668s-4.774-10.664-10.664-10.664h-85.336c-5.89 0-10.664 4.773-10.664 10.664v85.336c0 5.89 4.773 10.664 10.664 10.664s10.668-4.774 10.668-10.664v-59.586l88.457 88.457c4.187 4.043 10.84 3.988 14.953-.129 4.117-4.113 4.172-10.766.129-14.953zM117.465 21.465c-5.89 0-10.668 4.773-10.668 10.668v59.582L18.34 3.258C14.152-.785 7.5-.727 3.387 3.387s-4.172 10.765-.13 14.953l88.458 88.457H32.133c-5.895 0-10.668 4.777-10.668 10.668s4.773 10.668 10.668 10.668h85.332c5.89 0 10.668-4.778 10.668-10.668V32.133c0-5.895-4.778-10.668-10.668-10.668zm0 0" fill="#000000" opacity="1" data-original="#000000" class=""></path></g></svg>