<svg xmlns="http://www.w3.org/2000/svg" version="1.1" xmlns:xlink="http://www.w3.org/1999/xlink" width="512" height="512" x="0" y="0" viewBox="0 0 384 384" style="enable-background:new 0 0 512 512" xml:space="preserve" class=""><g><path d="M373.332 0H288c-5.89 0-10.668 4.777-10.668 10.668S282.109 21.332 288 21.332h59.582l-88.457 88.461a10.67 10.67 0 0 0-2.91 10.371 10.672 10.672 0 0 0 7.62 7.621 10.67 10.67 0 0 0 10.372-2.91l88.461-88.457V96c0 5.89 4.773 10.668 10.664 10.668S384 101.891 384 96V10.668C384 4.778 379.223 0 373.332 0zM109.793 259.125l-88.461 88.457V288c0-5.89-4.773-10.668-10.664-10.668S0 282.109 0 288v85.332C0 379.222 4.777 384 10.668 384H96c5.89 0 10.668-4.777 10.668-10.668S101.891 362.668 96 362.668H36.418l88.457-88.461c4.043-4.184 3.984-10.836-.129-14.953-4.117-4.113-10.77-4.172-14.953-.129zM373.332 277.332c-5.89 0-10.664 4.777-10.664 10.668v59.582l-88.461-88.457c-4.184-4.043-10.836-3.984-14.953.129-4.113 4.117-4.172 10.77-.129 14.953l88.457 88.461H288c-5.89 0-10.668 4.773-10.668 10.664S282.109 384 288 384h85.332c5.89 0 10.668-4.777 10.668-10.668V288c0-5.89-4.777-10.668-10.668-10.668zM36.418 21.332H96c5.89 0 10.668-4.773 10.668-10.664S101.891 0 96 0H10.668C4.778 0 0 4.777 0 10.668V96c0 5.89 4.777 10.668 10.668 10.668S21.332 101.891 21.332 96V36.418l88.461 88.457c4.184 4.043 10.836 3.984 14.953-.129 4.113-4.117 4.172-10.77.129-14.953zm0 0" fill="#000000" opacity="1" data-original="#000000" class=""></path></g></svg>