<svg width="33" height="33" viewBox="0 0 33 33" fill="none" xmlns="http://www.w3.org/2000/svg">
<path d="M10.182 21.4545H23.8183M10.182 21.4545V18.1818C10.182 17.418 10.182 17.0362 10.3306 16.7445C10.4613 16.4879 10.6699 16.2793 10.9265 16.1486C11.2182 16 11.6001 16 12.3638 16H21.6365C22.4003 16 22.7821 16 23.0738 16.1486C23.3304 16.2793 23.5389 16.4879 23.6697 16.7445C23.8183 17.0362 23.8183 17.418 23.8183 18.1818V21.4545M10.182 21.4545V26.9091V31M23.8183 21.4545V26.9091V31M6.90924 31H27.0911" stroke="black" stroke-width="2.72727" stroke-linecap="round" stroke-linejoin="round"/>
<path d="M2 20.7405V16.7269C2 14.8602 2 13.9268 2.24058 13.0674C2.4537 12.306 2.80394 11.5899 3.27408 10.9542C3.80484 10.2366 4.54156 9.66363 6.01502 8.51761L10.24 5.2315C12.5236 3.45536 13.6654 2.56728 14.9262 2.22592C16.0387 1.92469 17.2113 1.92469 18.3238 2.22592C19.5846 2.56728 20.7263 3.45536 23.01 5.2315L27.2349 8.51761C28.7085 9.66363 29.4451 10.2366 29.9758 10.9542C30.4461 11.5899 30.7963 12.306 31.0093 13.0674C31.25 13.9268 31.25 14.8602 31.25 16.7269V20.7405C31.25 24.3808 31.25 26.201 30.5415 27.5913C29.9183 28.8144 28.924 29.8088 27.701 30.432C26.3105 31.1405 24.4903 31.1405 20.85 31.1405H12.4C8.75966 31.1405 6.9395 31.1405 5.54907 30.432C4.32601 29.8088 3.33164 28.8144 2.70845 27.5913C2 26.201 2 24.3808 2 20.7405Z" stroke="black" stroke-width="3.25" stroke-linecap="round" stroke-linejoin="round"/>
</svg>
