<svg width="39" height="38" viewBox="0 0 39 38" fill="none" xmlns="http://www.w3.org/2000/svg">
<g clip-path="url(#clip0_117_103)">
<path d="M29.1696 3.5625C26.9441 3.5625 24.7705 2.95569 22.8845 1.80559C21.5816 1.01294 20.0728 0.59375 18.5226 0.59375H18.4232C16.2612 0.59375 14.2301 1.4155 12.703 2.907C11.1765 4.39791 10.3387 6.37806 10.3441 8.4835L10.3594 14.2518L10.9687 14.25C10.9687 12.9384 12.0601 11.875 13.4062 11.875V8.90625L14.0156 9.07309L19.3921 10.3823C20.2227 10.5848 21.0771 10.6875 21.9332 10.6875C25.9271 10.6875 29.5169 8.52506 31.3036 5.04509L32.0635 3.5625H29.1696Z" fill="black"/>
<path d="M30.0751 24.1282L24.375 22.1439V19.9067C25.1093 19.1467 25.6577 18.2174 25.9527 17.1837C27.4621 17.008 28.6406 15.767 28.6406 14.25V8.33031C28.2555 8.64381 27.8484 8.92941 27.4219 9.18472V11.8898C27.066 11.6274 26.6559 11.4309 26.2031 11.3412V10.6875H25.5938H24.9844H22.7992C22.0801 10.6875 21.4049 10.96 20.8967 11.4552C20.6194 11.726 20.2501 11.875 19.8571 11.875H19.1429C18.7499 11.875 18.3806 11.726 18.1027 11.4552C17.5951 10.96 16.9199 10.6875 16.2008 10.6875H14.0156V8.3125H12.7969V11.3412C11.4081 11.6173 10.3594 12.8161 10.3594 14.25C10.3594 15.767 11.5379 17.008 13.0473 17.1831C13.3423 18.2168 13.8907 19.1461 14.625 19.9061V22.1433L8.92491 24.1276C7.23145 24.7172 6.09375 26.2895 6.09375 28.0422V37.4062H32.9062V28.0422C32.9062 26.2895 31.7685 24.7172 30.0751 24.1282ZM23.1562 22.2181L19.5 24.2541L15.8438 22.2181V20.9047C16.8961 21.5751 18.1508 21.9688 19.5 21.9688C20.8492 21.9688 22.1039 21.5751 23.1562 20.9047V22.2181ZM27.4219 14.25C27.4219 15.032 26.8984 15.691 26.1775 15.9297C26.1903 15.7664 26.2031 15.6038 26.2031 15.4375V12.578C26.9106 12.8238 27.4219 13.4769 27.4219 14.25ZM22.7992 11.875H24.9844V14.25H21.9375C21.6017 14.25 21.3281 13.984 21.3281 13.6562V12.6344C21.4817 12.5364 21.6267 12.4242 21.7596 12.2948C22.0368 12.024 22.4061 11.875 22.7992 11.875ZM16.2008 11.875C16.5939 11.875 16.9632 12.024 17.241 12.2948C17.3739 12.4242 17.5189 12.5364 17.6725 12.6344V13.6562C17.6725 13.984 17.3989 14.25 17.0631 14.25H14.0162V11.875H16.2008ZM11.5781 14.25C11.5781 13.4769 12.0894 12.8238 12.7969 12.578V15.4375C12.7969 15.6038 12.8097 15.7664 12.8225 15.9297C12.1016 15.691 11.5781 15.032 11.5781 14.25ZM17.0625 15.4375C18.0704 15.4375 18.8906 14.6383 18.8906 13.6562V13.0387C18.9747 13.0465 19.057 13.0625 19.1429 13.0625H19.8571C19.943 13.0625 20.0253 13.0465 20.1094 13.0387V13.6562C20.1094 14.6383 20.9296 15.4375 21.9375 15.4375H24.9844C24.9844 18.3843 22.5237 20.7812 19.5 20.7812C16.4763 20.7812 14.0156 18.3843 14.0156 15.4375H17.0625ZM9.33441 25.2463L15.1753 23.2138L19.5 25.6209L23.8241 23.2133L29.665 25.2457C30.8752 25.6672 31.6875 26.7906 31.6875 28.0422V31.4688H28.0312V27.9062H26.8125V36.2188H12.1875V27.9062H10.9688V31.4688H7.3125V28.0422C7.3125 26.7906 8.1248 25.6672 9.33441 25.2463ZM7.3125 32.6562H10.9688V36.2188H7.3125V32.6562ZM28.0312 36.2188V32.6562H31.6875V36.2188H28.0312Z" fill="black"/>
<path d="M19.5 19C20.8443 19 21.9375 17.9348 21.9375 16.625H20.7188C20.7188 17.2799 20.1721 17.8125 19.5 17.8125C18.8279 17.8125 18.2812 17.2799 18.2812 16.625H17.0625C17.0625 17.9348 18.1557 19 19.5 19Z" fill="black"/>
<path d="M4.26562 17.8125H3.04688V19.5938H4.26562V17.8125Z" fill="black"/>
<path d="M2.4375 20.1875H0.609375V21.375H2.4375V20.1875Z" fill="black"/>
<path d="M4.26562 21.9688H3.04688V23.75H4.26562V21.9688Z" fill="black"/>
<path d="M6.70312 20.1875H4.875V21.375H6.70312V20.1875Z" fill="black"/>
<path d="M35.9531 9.5H34.7344V11.2812H35.9531V9.5Z" fill="black"/>
<path d="M34.125 11.875H32.2969V13.0625H34.125V11.875Z" fill="black"/>
<path d="M35.9531 13.6562H34.7344V15.4375H35.9531V13.6562Z" fill="black"/>
<path d="M38.3906 11.875H36.5625V13.0625H38.3906V11.875Z" fill="black"/>
</g>
<defs>
<clipPath id="clip0_117_103">
<rect width="39" height="38" fill="white"/>
</clipPath>
</defs>
</svg>
