<svg width="47" height="23" viewBox="0 0 47 23" fill="none" xmlns="http://www.w3.org/2000/svg">
<path d="M20.592 5.016C24.304 5.016 26.544 7.512 26.544 11.704V23H22.928V12.472C22.928 9.848 21.872 8.472 19.44 8.472C16.592 8.472 15.12 10.68 15.12 13.88L15.152 23H11.504V12.472C11.504 9.848 10.448 8.472 8.016 8.472C5.168 8.472 3.728 10.68 3.728 13.88V23H0.112V5.4H3.728V8.216C4.944 6.2 6.672 5.016 9.2 5.016C11.888 5.016 13.776 6.328 14.64 8.696C15.824 6.424 17.808 5.016 20.592 5.016ZM35.732 19.544H46.804V23H29.812V20.408L36.308 14.712C41.332 10.328 42.612 9.208 42.612 7.224C42.612 5.272 41.108 3.672 38.356 3.672C35.636 3.672 34.132 5.24 33.652 7.8H30.004C30.516 3.128 33.876 0.216 38.516 0.216C43.284 0.216 46.26 3.288 46.26 7.064C46.26 10.456 43.892 12.472 39.316 16.472L35.796 19.512L35.732 19.544Z" fill="black"/>
</svg>
