<svg width="31" height="31" viewBox="0 0 31 31" fill="none" xmlns="http://www.w3.org/2000/svg">
<path d="M9.02899 0.0518282C9.95172 0.282514 10.5127 1.21754 10.2821 2.14028L3.39334 29.6951C3.16267 30.6178 2.22763 31.1789 1.3049 30.9481C0.38216 30.7175 -0.178858 29.7826 0.0518282 28.8598L6.94054 1.3049C7.17123 0.38216 8.10625 -0.178858 9.02899 0.0518282ZM24.0594 1.3049L30.9481 28.8598C31.1789 29.7826 30.6178 30.7175 29.6951 30.9481C28.7723 31.1789 27.8374 30.6178 27.6068 29.6951L20.7181 2.14028C20.4873 1.21754 21.0484 0.282514 21.9711 0.0518282C22.8939 -0.178858 23.8288 0.38216 24.0594 1.3049ZM15.5 24.1109C16.3832 24.1109 17.1111 24.7757 17.2106 25.6322L17.2222 25.8331V29.2775C17.2222 30.2286 16.4512 30.9996 15.5 30.9996C14.6168 30.9996 13.8889 30.3348 13.7894 29.4783L13.7778 29.2775V25.8331C13.7778 24.8819 14.5489 24.1109 15.5 24.1109ZM15.5 12.0557C16.4512 12.0557 17.2222 12.8267 17.2222 13.7778V17.2222C17.2222 18.1734 16.4512 18.9444 15.5 18.9444C14.5489 18.9444 13.7778 18.1734 13.7778 17.2222V13.7778C13.7778 12.8267 14.5489 12.0557 15.5 12.0557ZM15.5 0.000403931C16.3832 0.000403931 17.1111 0.665241 17.2106 1.52174L17.2222 1.72258V5.16694C17.2222 6.11808 16.4512 6.88912 15.5 6.88912C14.6168 6.88912 13.8889 6.2243 13.7894 5.36778L13.7778 5.16694V1.72258C13.7778 0.771458 14.5489 0.000403931 15.5 0.000403931Z" fill="black"/>
</svg>
