<svg xmlns="http://www.w3.org/2000/svg" version="1.1" xmlns:xlink="http://www.w3.org/1999/xlink" width="512" height="512" x="0" y="0" viewBox="0 0 58 60" style="enable-background:new 0 0 512 512" xml:space="preserve" class=""><g><g fill="#000" fill-rule="nonzero"><path d="M55.149 14.872a7.507 7.507 0 0 0-4.833-3.372c-2.883-.774-6.672-.631-10.914.3C37.049 4.588 33.3 0 29 0s-8.05 4.588-10.4 11.8c-4.241-.931-8.03-1.073-10.913-.3a7.507 7.507 0 0 0-4.833 3.369C.676 18.647 2.822 24.275 7.988 30 2.822 35.725.676 41.353 2.851 45.128A7.507 7.507 0 0 0 7.684 48.5c1.392.35 2.824.519 4.26.5a31.4 31.4 0 0 0 6.655-.8C20.952 55.414 24.7 60 29 60s8.048-4.586 10.4-11.8a31.45 31.45 0 0 0 6.655.8c1.436.019 2.868-.15 4.26-.5a7.507 7.507 0 0 0 4.833-3.369c2.175-3.775.029-9.4-5.137-15.128 5.167-5.728 7.313-11.356 5.138-15.131zM49.8 13.435a5.6 5.6 0 0 1 3.617 2.435c1.7 2.947-.327 7.7-4.8 12.664a56.5 56.5 0 0 0-7.005-5.948 55.76 55.76 0 0 0-1.635-8.853c3.866-.833 7.286-.977 9.823-.298zM34.539 39.619A67.145 67.145 0 0 1 29 42.49a67.58 67.58 0 0 1-10.702-6.181 66.936 66.936 0 0 1 .002-12.618 67.58 67.58 0 0 1 5.163-3.31A66.14 66.14 0 0 1 29 17.512a67.201 67.201 0 0 1 5.544 2.869 67.58 67.58 0 0 1 5.163 3.31c.193 2.036.3 4.147.3 6.309s-.1 4.273-.3 6.309a68.688 68.688 0 0 1-5.168 3.31zm4.857-.662a53.549 53.549 0 0 1-1.378 6.835 54.257 54.257 0 0 1-6.583-2.247 75.855 75.855 0 0 0 4.106-2.194 72.71 72.71 0 0 0 3.859-2.394zm-12.83 4.588a54.328 54.328 0 0 1-6.584 2.247 53.549 53.549 0 0 1-1.382-6.835 74.482 74.482 0 0 0 3.855 2.394c1.368.79 2.738 1.52 4.111 2.194zm-10.411-8.819A54.325 54.325 0 0 1 10.768 30a54.325 54.325 0 0 1 5.387-4.726C16.052 26.81 16 28.385 16 30s.052 3.19.155 4.726zm6.3-16.077a74.235 74.235 0 0 0-3.855 2.394c.31-2.305.77-4.588 1.378-6.833a54.259 54.259 0 0 1 6.583 2.242 73.618 73.618 0 0 0-4.102 2.197zm8.979-2.2a54.427 54.427 0 0 1 6.579-2.246 53.424 53.424 0 0 1 1.387 6.84 75.408 75.408 0 0 0-3.855-2.394 68.685 68.685 0 0 0-4.107-2.196zm10.407 8.821c1.9 1.456 3.7 3.036 5.391 4.73a54.325 54.325 0 0 1-5.387 4.726C41.948 33.19 42 31.615 42 30s-.052-3.19-.155-4.726zM29 2c3.349 0 6.406 4.046 8.443 10.282A57.188 57.188 0 0 0 29 15.314a57.418 57.418 0 0 0-8.443-3.032C22.594 6.046 25.651 2 29 2zM4.584 15.87A5.6 5.6 0 0 1 8.2 13.435 14.449 14.449 0 0 1 11.918 13c2.053.029 4.098.274 6.1.731a55.76 55.76 0 0 0-1.635 8.853 56.5 56.5 0 0 0-7 5.948c-4.472-4.959-6.497-9.715-4.799-12.662zM8.2 46.565a5.6 5.6 0 0 1-3.616-2.435c-1.7-2.947.327-7.7 4.8-12.664a56.5 56.5 0 0 0 7 5.948 55.76 55.76 0 0 0 1.635 8.853c-3.862.833-7.283.977-9.819.298zM29 58c-3.349 0-6.406-4.046-8.443-10.282A57.248 57.248 0 0 0 29 44.692a57.332 57.332 0 0 0 8.443 3.027C35.406 53.954 32.349 58 29 58zm24.416-13.87a5.6 5.6 0 0 1-3.616 2.435c-2.535.679-5.956.539-9.82-.3a55.76 55.76 0 0 0 1.635-8.853 56.5 56.5 0 0 0 7.005-5.948c4.469 4.963 6.494 9.719 4.796 12.666z" fill="#000000" opacity="1" data-original="#000000" class=""></path><path d="M29 23a7 7 0 1 0 0 14 7 7 0 0 0 0-14zm0 5a2 2 0 0 0-2 2 1 1 0 0 1-2 0 4 4 0 0 1 4-4 1 1 0 0 1 0 2z" fill="#000000" opacity="1" data-original="#000000" class=""></path><circle cx="29" cy="8" r="2" fill="#000000" opacity="1" data-original="#000000" class=""></circle><circle cx="2" cy="30" r="2" fill="#000000" opacity="1" data-original="#000000" class=""></circle><circle cx="56" cy="30" r="2" fill="#000000" opacity="1" data-original="#000000" class=""></circle><circle cx="10" cy="41" r="2" fill="#000000" opacity="1" data-original="#000000" class=""></circle></g></g></svg>