<svg width="36" height="30" viewBox="0 0 36 30" fill="none" xmlns="http://www.w3.org/2000/svg">
<path fill-rule="evenodd" clip-rule="evenodd" d="M2.71144 13.1568C12.1858 9.02903 18.5037 6.30772 21.6646 4.9929C30.6904 1.23887 32.5656 0.586774 33.7882 0.565168C34.0571 0.560468 34.6581 0.627118 35.0476 0.943036C35.3764 1.20988 35.4668 1.57023 35.5101 1.82322C35.5535 2.07615 35.6074 2.65239 35.5643 3.10264C35.0752 8.24174 32.9589 20.7128 31.8823 26.4685C31.4268 28.9039 30.5298 29.7204 29.6612 29.8003C28.1668 29.9379 26.9569 29.0756 25.6104 28.1155C25.2564 27.8633 24.8932 27.6044 24.5127 27.355C23.0196 26.3762 21.8655 25.5903 20.7085 24.8021C19.6491 24.0806 18.5871 23.3575 17.2598 22.483C14.4981 20.663 15.6542 19.5485 17.1958 18.0624L17.2004 18.058C17.4485 17.8189 17.7066 17.5701 17.9598 17.3068C18.0736 17.1887 18.6299 16.6714 19.4142 15.9424C21.9303 13.6032 26.7923 9.08293 26.915 8.55998C26.9353 8.4741 26.9537 8.15428 26.7638 7.98539C26.5737 7.81651 26.2934 7.87425 26.0908 7.92021C25.804 7.98527 21.2345 11.0056 12.3822 16.981C11.0852 17.8717 9.91032 18.3056 8.85774 18.2829C7.69728 18.258 5.46513 17.6269 3.80573 17.0874C3.56205 17.0083 3.32429 16.9336 3.09489 16.8613C1.40824 16.331 0.169626 15.9416 0.29365 14.9524C0.367014 14.3672 1.17292 13.7687 2.71144 13.1568Z" fill="white"/>
</svg>
