<svg width="40" height="37" viewBox="0 0 40 37" fill="none" xmlns="http://www.w3.org/2000/svg">
<path fill-rule="evenodd" clip-rule="evenodd" d="M13.3333 3.21739C8.96273 3.21739 5 7.29724 5 12.8696C5 17.7216 8.00453 21.4422 11.6667 22.3229V15.3392L7.40884 12.5994L9.25784 9.92237L12.8711 12.2474L15.2799 8.75984L18.0533 10.5445L15 14.9654V22.3229C18.6622 21.4422 21.6667 17.7216 21.6667 12.8696C21.6667 7.29724 17.704 3.21739 13.3333 3.21739ZM1.66667 12.8696C1.66667 19.151 5.84429 24.7104 11.6667 25.6117V33.7826H0V37H40V33.7826H35V30.5652L33.3333 28.9565H20L18.3333 30.5652V33.7826H15V25.6117C20.8224 24.7104 25 19.151 25 12.8696C25 6.00348 20.0084 0 13.3333 0C6.65825 0 1.66667 6.00348 1.66667 12.8696ZM21.6667 33.7826H31.6667V32.1739H21.6667V33.7826Z" fill="black"/>
</svg>
