<svg xmlns="http://www.w3.org/2000/svg" version="1.1" xmlns:xlink="http://www.w3.org/1999/xlink" width="512" height="512" x="0" y="0" viewBox="0 0 60 54" style="enable-background:new 0 0 512 512" xml:space="preserve" class=""><g><g fill="#000" fill-rule="nonzero"><path d="M3 54h30a3 3 0 0 0 3-3V15a3 3 0 0 0-3-3h-2.184a2.863 2.863 0 0 0-.217-2.471 2.983 2.983 0 0 0-.819-5.413A2.99 2.99 0 0 0 27 0H7a3 3 0 1 0 0 6h1.184a2.809 2.809 0 0 0 0 2H8a3 3 0 0 0-3 3c.003.341.066.68.184 1H3a3 3 0 0 0-3 3v36a3 3 0 0 0 3 3zm30-2H3a1 1 0 0 1-1-1V22h32v29a1 1 0 0 1-1 1zm1-37v5H17v-6h16a1 1 0 0 1 1 1zM6 3a1 1 0 0 1 1-1h20a1 1 0 0 1 0 2H7a1 1 0 0 1-1-1zm4 4a1 1 0 0 1 1-1h18a1 1 0 0 1 0 2H11a1 1 0 0 1-1-1zm-3 4a1 1 0 0 1 1-1h20a1 1 0 0 1 0 2H8a1 1 0 0 1-1-1zm-4 3h12v6H2v-5a1 1 0 0 1 1-1z" fill="#000000" opacity="1" data-original="#000000" class=""></path><circle cx="31" cy="17" r="1" fill="#000000" opacity="1" data-original="#000000" class=""></circle><path d="M5 18h7a1 1 0 0 0 0-2H5a1 1 0 0 0 0 2zM18 24c-7.18 0-13 5.82-13 13s5.82 13 13 13 13-5.82 13-13c-.008-7.176-5.824-12.992-13-13zm0 2c3.309 0 6.441 1.493 8.526 4.062a8.188 8.188 0 0 0-3.49 6.42c-.766.5-3.2 1.543-7.481-1.314A8.125 8.125 0 0 0 9.217 33.6a6.191 6.191 0 0 0-1.888.778A11.011 11.011 0 0 1 18 26zm0 22c-5.953-.01-10.82-4.75-10.985-10.7a4.763 4.763 0 0 1 2.665-1.754 6.259 6.259 0 0 1 4.765 1.286 11.47 11.47 0 0 0 6.313 2.253 6.473 6.473 0 0 0 2.409-.445 8.018 8.018 0 0 0 3.359 5.3A10.982 10.982 0 0 1 18 48zm9.641-5.712a6.615 6.615 0 0 1 0-10.576 10.968 10.968 0 0 1 0 10.576zM57 20H41a2.99 2.99 0 0 0-2.185 5.042 2.965 2.965 0 0 0-.74 2.065l.788 22.071a4.982 4.982 0 0 0 5 4.822h10.278a4.982 4.982 0 0 0 5-4.822l.788-22.071a2.96 2.96 0 0 0-.74-2.065A2.99 2.99 0 0 0 57 20zm-16 2h16a1 1 0 0 1 0 2H41a1 1 0 0 1 0-2zm16.139 27.107a2.99 2.99 0 0 1-3 2.893H43.86a2.988 2.988 0 0 1-3-2.893l-.788-22.071a1 1 0 0 1 1-1.036h15.856a1 1 0 0 1 1 1.036z" fill="#000000" opacity="1" data-original="#000000" class=""></path><path d="M55 47v-3a1 1 0 0 0-2 0v3h-2v-1a1 1 0 0 0-2 0v1h-1a1 1 0 0 0 0 2h1a1 1 0 0 0 2 0h2a1 1 0 0 0 2 0 1 1 0 0 0 0-2z" fill="#000000" opacity="1" data-original="#000000" class=""></path></g></g></svg>